<?xml version="1.0" standalone="no"?>
<!DOCTYPE svg PUBLIC "-//W3C//DTD SVG 20010904//EN"
 "http://www.w3.org/TR/2001/REC-SVG-20010904/DTD/svg10.dtd">
<svg version="1.0" xmlns="http://www.w3.org/2000/svg"
 width="354.000000pt" height="354.000000pt" viewBox="0 0 354.000000 354.000000"
 preserveAspectRatio="xMidYMid meet">
<metadata>
Created by potrace 1.14, written by Peter Selinger 2001-2017
</metadata>
<g transform="translate(0.000000,354.000000) scale(0.100000,-0.100000)"
fill="#000000" stroke="none">
<path d="M0 1770 l0 -1770 1770 0 1770 0 0 1770 0 1770 -1770 0 -1770 0 0
-1770z m3470 -10 l0 -1700 -1700 0 -1700 0 0 1700 0 1700 1700 0 1700 0 0
-1700z"/>
<path d="M100 1760 l0 -1680 1670 0 1670 0 0 1680 0 1680 -1670 0 -1670 0 0
-1680z m2528 1424 c186 -39 357 -175 446 -354 60 -122 80 -214 73 -340 -9
-157 -70 -310 -168 -417 -59 -64 -185 -170 -231 -194 -24 -13 -70 -30 -103
-39 -55 -16 -60 -20 -60 -45 0 -20 -7 -30 -23 -36 -31 -12 -26 -45 6 -42 17 2
22 -2 22 -22 0 -37 -27 -72 -76 -101 -40 -24 -44 -24 -76 -10 -58 26 -98 72
-98 113 0 18 5 22 22 20 34 -3 36 30 3 43 -25 9 -25 11 -11 32 9 12 16 26 16
29 0 14 -64 29 -99 23 -57 -9 -115 11 -148 51 -15 20 -71 79 -123 133 -77 78
-104 114 -137 182 -55 110 -75 192 -75 304 -1 121 15 192 67 301 49 104 104
173 193 244 164 132 352 172 580 125z m-2178 -2013 c0 -80 12 -111 44 -111 34
0 45 25 48 104 2 53 7 81 16 84 9 3 12 -17 12 -78 0 -73 -3 -83 -25 -105 -31
-32 -69 -32 -100 0 -22 21 -25 33 -25 98 0 40 3 77 7 80 17 18 23 1 23 -72z
m262 4 c23 -41 46 -75 51 -75 4 0 7 34 7 75 0 43 4 75 10 75 6 0 10 -42 10
-105 0 -58 -4 -105 -8 -105 -13 0 -35 28 -73 93 l-34 58 -5 -73 c-3 -41 -9
-72 -15 -71 -5 2 -11 42 -13 90 -5 139 7 146 70 38z m188 -24 c0 -79 -3 -100
-15 -105 -13 -5 -15 10 -15 99 0 87 3 105 15 105 12 0 15 -18 15 -99z m103 14
c15 -44 29 -81 31 -83 2 -2 16 33 31 77 25 76 45 110 45 77 0 -20 -59 -179
-71 -191 -14 -14 -24 5 -55 100 -15 44 -29 86 -32 94 -3 9 0 12 9 9 8 -2 27
-40 42 -83z m277 75 c0 -5 -18 -10 -40 -10 -39 0 -40 -1 -40 -35 0 -34 1 -35
40 -35 22 0 40 -4 40 -10 0 -5 -18 -10 -40 -10 -39 0 -40 -1 -40 -35 0 -34 1
-35 40 -35 29 0 40 -4 40 -16 0 -12 -10 -14 -52 -12 l-53 3 -3 103 -3 102 56
0 c30 0 55 -4 55 -10z m168 -6 c26 -18 29 -56 7 -78 -14 -14 -14 -19 5 -55 22
-44 25 -61 10 -61 -5 0 -19 20 -31 45 -16 35 -27 45 -45 45 -22 0 -24 -4 -24
-45 0 -25 -4 -45 -10 -45 -6 0 -10 42 -10 105 l0 105 38 0 c21 0 48 -7 60 -16z
m188 2 c17 -14 15 -15 -26 -13 -39 2 -45 -1 -48 -19 -2 -17 7 -28 40 -46 38
-20 43 -28 43 -58 0 -27 -6 -38 -27 -49 -30 -17 -78 -7 -86 18 -4 11 0 12 14
6 44 -18 62 -17 74 5 9 18 8 25 -6 41 -9 10 -22 19 -28 19 -18 1 -43 24 -50
47 -15 46 56 81 100 49z m104 -85 c0 -56 -4 -103 -10 -106 -6 -4 -10 32 -10
99 0 64 4 106 10 106 6 0 10 -40 10 -99z m200 90 c0 -5 -12 -11 -27 -13 l-28
-3 -3 -92 c-1 -51 -7 -93 -12 -93 -5 0 -11 42 -12 93 l-3 92 -27 3 c-56 7 -26
22 42 22 39 0 70 -4 70 -9z m75 -31 c10 -23 22 -43 26 -46 5 -3 17 13 28 35
20 39 38 57 47 49 2 -3 -8 -27 -23 -54 -15 -27 -30 -71 -33 -99 -3 -27 -9 -50
-15 -50 -5 0 -12 23 -15 50 -4 28 -18 74 -33 103 -20 37 -24 52 -14 52 8 0 22
-18 32 -40z m382 25 c56 -39 50 -150 -9 -181 -64 -33 -128 13 -128 93 0 80 78
129 137 88z m213 5 c0 -5 -18 -10 -40 -10 -39 0 -40 -1 -40 -35 0 -34 1 -35
40 -35 22 0 40 -4 40 -10 0 -5 -18 -10 -40 -10 l-40 0 0 -51 c0 -36 -4 -49
-12 -47 -13 5 -24 167 -14 195 6 15 106 19 106 3z m-1890 -403 c61 -31 103
-99 108 -175 5 -75 -33 -153 -96 -196 -62 -44 -151 -48 -226 -12 -90 44 -136
139 -115 238 32 149 188 218 329 145z m1366 -2 c124 -73 141 -256 31 -350
-100 -86 -260 -68 -333 36 -33 48 -44 143 -24 203 42 128 204 183 326 111z
m-1051 15 c-3 -5 -15 -10 -26 -10 -10 0 -19 -3 -19 -7 0 -14 91 -138 100 -138
13 0 100 126 94 136 -3 5 -12 9 -20 9 -8 0 -14 5 -14 10 0 6 32 10 75 10 76 0
100 -13 45 -23 -21 -5 -47 -28 -92 -83 -35 -42 -65 -80 -66 -85 -7 -19 139
-200 169 -211 49 -17 22 -28 -72 -28 -88 0 -113 10 -64 27 l26 8 -51 73 c-28
39 -55 72 -60 72 -5 0 -32 -33 -60 -72 l-51 -73 26 -8 c43 -15 17 -27 -56 -27
-51 0 -70 3 -67 12 3 7 15 15 29 18 21 5 159 162 159 181 0 3 -30 45 -66 94
-41 54 -78 92 -95 99 -51 19 -32 26 67 26 61 0 93 -4 89 -10z m653 -40 c-4
-60 -18 -66 -33 -13 l-11 38 -77 3 -77 3 0 -91 0 -90 61 0 c58 0 60 1 70 30
16 46 29 26 29 -44 0 -75 -9 -88 -30 -44 -14 31 -19 33 -73 36 l-58 3 3 -87 3
-88 33 -8 c18 -5 30 -13 27 -18 -7 -11 -178 -14 -189 -3 -4 4 8 14 26 23 l33
15 3 169 c3 175 -2 196 -39 196 -10 0 -21 5 -24 10 -4 7 52 10 160 10 l166 0
-3 -50z m827 36 c86 -36 91 -148 9 -192 -38 -21 -40 -26 -19 -44 9 -7 36 -41
62 -76 32 -44 57 -67 80 -75 18 -6 33 -15 33 -20 0 -12 -87 -12 -110 1 -10 5
-46 48 -80 95 -56 78 -64 85 -96 85 l-34 0 0 -67 c0 -78 5 -87 43 -97 57 -14
25 -26 -68 -26 -97 0 -119 10 -65 29 l30 10 0 181 0 181 -30 6 c-65 12 -24 23
90 23 81 0 132 -5 155 -14z m496 3 c107 -36 163 -142 138 -261 -13 -61 -55
-110 -111 -133 -50 -20 -311 -34 -321 -17 -4 5 6 15 23 21 l30 10 0 180 0 179
-30 11 c-16 5 -30 12 -30 15 0 11 267 6 301 -5z"/>
<path d="M2393 3178 c-254 -26 -479 -209 -556 -453 -30 -95 -32 -311 -3 -395
37 -108 88 -192 166 -270 l74 -75 6 35 c4 20 9 41 13 47 4 6 3 14 -3 18 -5 3
-10 11 -10 18 0 8 3 8 12 -1 8 -8 19 -5 43 16 l31 27 -45 51 c-110 121 -152
272 -120 426 35 169 178 319 344 363 255 66 516 -88 585 -346 17 -62 14 -179
-5 -247 -38 -131 -146 -255 -268 -306 -67 -29 -97 -65 -83 -101 9 -24 146 -26
241 -4 60 15 99 44 165 125 268 330 157 826 -225 1009 -129 62 -222 78 -362
63z m-46 -98 c0 -33 -4 -60 -9 -60 -4 0 -8 7 -8 15 0 8 -14 30 -31 50 -31 35
-22 49 13 18 17 -15 18 -15 18 4 0 17 8 33 16 33 1 0 2 -27 1 -60z m321 38
c17 -17 15 -68 -5 -90 -38 -42 -102 -1 -87 56 10 41 65 61 92 34z m-188 -23
c0 -8 -7 -15 -15 -15 -16 0 -20 12 -8 23 11 12 23 8 23 -8z m-263 -10 c-18
-13 -18 -15 8 -59 20 -34 23 -46 12 -46 -7 0 -22 18 -32 41 -14 30 -23 39 -37
36 -28 -8 -21 10 10 27 36 20 64 21 39 1z m597 -46 c-4 -7 -10 -7 -17 0 -14
14 -37 14 -37 0 0 -7 8 -18 18 -26 16 -13 15 -14 -8 -9 -18 4 -30 0 -42 -17
-31 -41 -29 -10 2 42 l32 51 29 -16 c16 -8 27 -20 23 -25z m-675 -66 c21 -28
28 -43 19 -43 -17 0 -80 84 -71 94 7 7 6 8 52 -51z m-112 -28 c-28 -21 -19
-32 26 -31 35 1 42 -2 45 -20 3 -24 -32 -61 -43 -45 -3 6 1 14 9 17 9 3 16 12
16 19 0 10 -13 13 -42 12 -34 -2 -43 2 -46 16 -4 22 26 59 41 50 6 -4 4 -11
-6 -18z m838 -15 c-5 -8 -11 -8 -17 -2 -6 6 -7 16 -3 22 5 8 11 8 17 2 6 -6 7
-16 3 -22z m139 -83 c19 -52 -59 -100 -98 -61 -31 30 -13 81 34 96 25 8 55 -8
64 -35z m-1040 -3 c9 -3 16 -12 16 -19 0 -7 6 -13 13 -12 32 1 48 -4 42 -13
-3 -6 -17 -7 -30 -4 -31 8 -40 -11 -13 -30 12 -9 19 -18 16 -22 -7 -6 -108 47
-108 57 0 6 39 49 45 49 2 0 10 -3 19 -6z m1082 -113 c-21 -23 -20 -31 3 -31
11 0 23 -5 27 -11 5 -9 -3 -10 -29 -5 -30 6 -38 3 -56 -20 -26 -33 -39 -25
-16 9 15 24 15 25 -10 31 -14 4 -25 11 -25 16 0 12 -2 12 38 1 29 -9 34 -7 48
15 9 13 20 21 26 18 5 -3 3 -13 -6 -23z m-1162 -36 c-5 -19 -2 -25 10 -25 9 0
16 6 16 14 0 8 5 18 11 22 8 5 10 -1 7 -19 -7 -35 28 -46 36 -10 4 13 11 21
16 18 10 -6 -7 -65 -19 -65 -4 0 -30 7 -59 15 -50 15 -51 16 -40 45 12 36 31
40 22 5z m24 -119 c29 -11 52 -25 52 -32 0 -6 -20 -17 -44 -23 -24 -6 -51 -13
-60 -17 -9 -3 -16 -1 -16 4 0 6 21 17 47 24 l48 14 -48 18 c-26 10 -47 22 -47
28 0 5 4 8 8 6 4 -1 31 -12 60 -22z m1186 2 c8 -32 7 -38 -4 -38 -5 0 -10 9
-10 20 0 11 -7 20 -15 20 -8 0 -15 -9 -15 -20 0 -11 -4 -20 -10 -20 -5 0 -10
9 -10 20 0 16 -7 20 -31 20 -17 0 -28 4 -24 10 3 6 30 10 59 10 47 0 54 -3 60
-22z m-26 -104 c34 -23 27 -75 -10 -88 -44 -16 -82 3 -86 41 -3 32 25 63 58
63 9 0 26 -7 38 -16z m-1111 -30 c-9 -9 -99 -25 -105 -19 -10 9 6 16 55 24 49
7 61 6 50 -5z m23 -63 c0 -5 -11 -23 -25 -39 -32 -39 -32 -43 6 -30 16 6 33 8
36 4 6 -5 -36 -26 -84 -40 -31 -10 -30 14 2 44 33 31 32 41 -5 29 -55 -20 -55
-2 0 19 63 24 70 25 70 13z m1025 -56 c49 -21 55 -27 46 -43 -15 -29 -37 -43
-55 -36 -9 3 -16 10 -16 15 0 5 -13 9 -30 9 -37 0 -40 18 -3 22 33 4 41 24 14
33 -12 3 -21 11 -21 16 0 13 2 12 65 -16z m-955 -96 c15 -27 9 -41 -35 -74
-50 -39 -58 -21 -10 20 36 30 38 35 25 49 -14 14 -19 14 -52 -9 -40 -27 -48
-30 -48 -16 0 14 63 51 87 51 12 0 27 -9 33 -21z m896 -26 l45 -36 -28 -29
c-21 -22 -33 -28 -53 -23 -48 12 -64 60 -34 103 8 12 17 22 20 22 3 0 26 -16
50 -37z"/>
<path d="M2598 3085 c-13 -29 3 -55 33 -55 20 0 35 39 25 65 -9 24 -45 18 -58
-10z"/>
<path d="M2932 2854 c-28 -20 -26 -58 4 -62 28 -4 61 34 48 55 -15 24 -26 25
-52 7z"/>
<path d="M1931 2816 c-9 -11 -8 -15 5 -20 23 -9 24 -8 24 14 0 23 -13 26 -29
6z"/>
<path d="M3002 2461 c-8 -4 -12 -19 -10 -32 2 -20 9 -24 38 -24 26 0 36 5 38
19 2 11 -4 26 -14 33 -21 15 -34 16 -52 4z"/>
<path d="M3002 2284 c4 -21 22 -23 26 -1 2 10 -3 17 -13 17 -10 0 -15 -6 -13
-16z"/>
<path d="M2887 2203 c-4 -3 -7 -17 -7 -29 0 -30 33 -49 60 -34 27 14 25 22
-10 48 -32 24 -34 25 -43 15z"/>
<path d="M2400 2973 c-200 -33 -351 -186 -382 -385 -20 -136 21 -270 116 -375
44 -49 51 -53 92 -53 59 0 105 -20 136 -59 24 -31 26 -32 104 -32 255 1 454
199 454 452 0 95 -24 176 -74 252 -97 146 -279 228 -446 200z m246 -149 c-7
-18 11 -37 29 -31 9 4 14 11 11 16 -6 9 31 47 39 39 3 -3 -1 -22 -8 -42 l-13
-38 -89 0 -89 0 -13 38 c-7 20 -11 39 -9 41 8 9 46 -22 42 -34 -6 -16 26 -27
35 -11 4 6 6 16 3 20 -3 4 3 19 12 34 l18 26 18 -24 c10 -12 16 -28 14 -34z
m-306 31 c7 -9 14 -25 15 -38 1 -12 3 -26 4 -31 2 -12 31 14 31 28 0 6 9 17
20 24 24 14 25 4 7 -43 l-12 -30 -87 0 -88 0 -14 43 c-8 23 -13 42 -11 42 17
0 38 -17 46 -37 11 -29 34 -26 35 5 1 22 21 52 34 52 4 0 13 -7 20 -15z m60
-114 c0 -14 -75 -24 -120 -16 -67 11 -45 25 40 25 44 0 80 -4 80 -9z m290 -1
c0 -5 -16 -12 -35 -16 -43 -8 -128 4 -120 17 8 12 155 12 155 -1z m-249 -89
c17 -20 19 -40 19 -164 0 -131 -1 -140 -16 -119 -14 20 -23 22 -110 22 l-94 0
0 138 c0 76 3 142 8 146 4 4 45 6 90 4 74 -3 86 -6 103 -27z m249 -116 l0
-145 -95 0 c-79 0 -96 -3 -104 -17 -7 -13 -10 24 -11 128 0 180 -3 176 138
178 l72 1 0 -145z m-492 115 c9 0 12 -37 12 -150 l0 -150 115 0 c70 0 115 -4
115 -10 0 -5 11 -10 24 -10 14 0 28 5 31 10 4 6 53 10 116 10 l109 0 0 150 c0
93 4 150 10 150 6 0 10 -60 10 -160 l0 -160 -114 0 c-73 0 -117 -4 -122 -11
-4 -7 -20 -8 -43 -4 -20 4 -85 9 -146 12 -60 2 -114 8 -119 13 -6 6 -15 5 -23
-2 -10 -8 -17 -8 -25 0 -14 14 -1 32 23 32 11 0 19 7 19 16 0 14 -3 14 -15 4
-11 -9 -19 -10 -27 -2 -13 13 -1 33 19 30 9 -2 18 3 20 10 3 8 -4 11 -19 10
-15 -2 -23 2 -23 12 0 10 8 14 23 12 15 -2 22 2 22 12 0 10 -8 15 -21 13 -12
-1 -24 4 -26 11 -3 7 5 12 21 12 17 0 26 6 26 15 0 11 -7 14 -25 9 -19 -5 -25
-2 -25 10 0 10 9 16 25 16 14 0 25 5 25 10 0 6 -11 10 -25 10 -16 0 -25 6 -25
16 0 12 7 15 25 12 17 -4 25 -1 25 8 0 8 -11 14 -25 14 -16 0 -25 6 -25 16 0
12 6 15 23 10 12 -3 28 -6 35 -6z m299 -422 c-6 -20 17 -43 33 -33 5 3 10 12
10 19 0 15 28 42 35 34 2 -2 0 -20 -6 -39 l-11 -35 -91 1 -90 0 -13 35 c-18
50 -17 52 11 34 14 -9 25 -22 25 -30 0 -19 21 -29 30 -13 5 7 7 17 4 21 -3 4
3 19 12 33 16 25 18 25 36 8 11 -9 17 -25 15 -35z m30 -74 c43 -12 11 -24 -63
-24 -101 0 -101 26 1 29 22 0 50 -2 62 -5z"/>
<path d="M2264 2610 c0 -24 27 -23 33 0 4 13 3 13 -6 0 -9 -13 -11 -13 -11 3
0 9 -4 17 -8 17 -4 0 -8 -9 -8 -20z"/>
<path d="M2334 2610 c0 -13 4 -16 10 -10 7 7 7 13 0 20 -6 6 -10 3 -10 -10z"/>
<path d="M2360 2623 c0 -4 5 -15 10 -23 8 -13 10 -13 10 2 0 9 -4 20 -10 23
-5 3 -10 3 -10 -2z"/>
<path d="M2392 2610 c0 -14 2 -19 5 -12 2 6 2 18 0 25 -3 6 -5 1 -5 -13z"/>
<path d="M2414 2610 c0 -11 4 -20 8 -20 4 0 8 9 8 20 0 11 -4 20 -8 20 -4 0
-8 -9 -8 -20z"/>
<path d="M2290 2546 c0 -2 7 -9 15 -16 13 -11 14 -10 9 4 -5 14 -24 23 -24 12z"/>
<path d="M2340 2541 c0 -6 4 -13 10 -16 6 -3 7 1 4 9 -7 18 -14 21 -14 7z"/>
<path d="M2380 2541 c0 -5 5 -13 10 -16 6 -3 10 -2 10 4 0 5 -4 13 -10 16 -5
3 -10 2 -10 -4z"/>
<path d="M2292 2460 c0 -14 2 -19 5 -12 2 6 2 18 0 25 -3 6 -5 1 -5 -13z"/>
<path d="M2312 2460 c0 -14 2 -19 5 -12 2 6 2 18 0 25 -3 6 -5 1 -5 -13z"/>
<path d="M2352 2460 c0 -14 2 -19 5 -12 2 6 2 18 0 25 -3 6 -5 1 -5 -13z"/>
<path d="M2377 2460 c3 -11 7 -20 9 -20 2 0 4 9 4 20 0 11 -4 20 -9 20 -5 0
-7 -9 -4 -20z"/>
<path d="M2510 2625 c0 -5 5 -17 10 -25 5 -8 10 -10 10 -5 0 6 -5 17 -10 25
-5 8 -10 11 -10 5z"/>
<path d="M2542 2610 c0 -14 2 -19 5 -12 2 6 2 18 0 25 -3 6 -5 1 -5 -13z"/>
<path d="M2564 2610 c0 -11 4 -20 8 -20 4 0 8 9 8 20 0 11 -4 20 -8 20 -4 0
-8 -9 -8 -20z"/>
<path d="M2590 2626 c0 -4 7 -14 15 -22 8 -9 15 -11 15 -6 0 5 -7 15 -15 22
-8 7 -15 9 -15 6z"/>
<path d="M2542 2530 c0 -14 2 -19 5 -12 2 6 2 18 0 25 -3 6 -5 1 -5 -13z"/>
<path d="M2582 2530 c0 -14 2 -19 5 -12 2 6 2 18 0 25 -3 6 -5 1 -5 -13z"/>
<path d="M2601 2534 c0 -11 3 -14 6 -6 3 7 2 16 -1 19 -3 4 -6 -2 -5 -13z"/>
<path d="M2530 2475 c0 -5 5 -17 10 -25 5 -8 10 -10 10 -5 0 6 -5 17 -10 25
-5 8 -10 11 -10 5z"/>
<path d="M2562 2460 c0 -14 2 -19 5 -12 2 6 2 18 0 25 -3 6 -5 1 -5 -13z"/>
<path d="M2580 2459 c0 -11 4 -18 10 -14 5 3 7 12 3 20 -7 21 -13 19 -13 -6z"/>
<path d="M2627 2466 c-3 -8 0 -17 7 -19 10 -4 12 1 9 14 -6 23 -9 24 -16 5z"/>
<path d="M2170 2118 c-35 -24 -50 -48 -30 -48 7 0 23 9 37 20 31 24 75 25 133
5 35 -12 40 -13 31 -1 -18 22 -76 46 -109 46 -16 0 -44 -10 -62 -22z"/>
<path d="M2193 2078 c-32 -15 -29 -22 20 -44 51 -22 61 -35 43 -53 -12 -11
-21 -8 -60 18 l-46 32 0 -34 c0 -58 71 -107 205 -142 147 -38 347 0 445 84
l25 22 -24 -7 c-13 -3 -63 -7 -110 -7 -111 -1 -217 28 -339 94 -94 50 -120 56
-159 37z m217 -143 c0 -8 -7 -15 -15 -15 -8 0 -15 7 -15 15 0 8 7 15 15 15 8
0 15 -7 15 -15z m165 -24 c7 -12 -12 -24 -25 -16 -11 7 -4 25 10 25 5 0 11 -4
15 -9z"/>
<path d="M2104 2035 c-20 -81 48 -175 128 -175 18 0 11 7 -28 29 -57 33 -77
68 -72 127 3 44 -18 59 -28 19z"/>
<path d="M2398 2043 c7 -3 16 -2 19 1 4 3 -2 6 -13 5 -11 0 -14 -3 -6 -6z"/>
<path d="M2470 2043 c-8 -2 -22 -7 -30 -10 -10 -3 -2 -11 25 -23 49 -23 85
-25 85 -6 0 8 3 21 6 30 5 13 -1 16 -32 15 -22 0 -46 -3 -54 -6z"/>
<path d="M2380 1800 c-8 -16 -8 -20 4 -20 43 0 38 -72 -6 -89 -19 -7 -19 -8 7
-39 15 -18 40 -39 55 -47 24 -12 30 -12 63 8 33 20 75 65 66 70 -36 19 -44 28
-47 50 -2 17 4 30 19 40 13 10 19 22 16 31 -5 13 -23 16 -86 16 -70 0 -82 -3
-91 -20z"/>
<path d="M1370 1189 c0 -38 2 -40 26 -37 15 2 33 13 41 24 12 19 12 24 -2 38
-9 9 -27 16 -41 16 -21 0 -24 -4 -24 -41z"/>
<path d="M2313 1215 c-64 -45 -11 -181 57 -145 45 24 55 105 18 140 -26 24
-46 25 -75 5z"/>
<path d="M570 838 c-45 -13 -69 -34 -91 -83 -23 -49 -25 -161 -5 -208 49 -116
192 -128 253 -21 87 153 -13 352 -157 312z"/>
<path d="M1940 842 c-126 -19 -165 -261 -57 -361 34 -31 103 -39 145 -17 91
47 120 213 55 314 -15 23 -34 44 -43 48 -29 12 -75 20 -100 16z"/>
<path d="M2360 746 l0 -96 54 0 c47 0 57 4 75 26 14 17 21 41 21 69 0 57 -32
86 -100 93 l-50 5 0 -97z"/>
<path d="M2840 651 l0 -191 75 0 c69 0 77 2 109 31 41 35 56 79 56 163 0 70
-27 135 -68 162 -16 11 -53 19 -99 22 l-73 5 0 -192z"/>
</g>
</svg>
